<svg xmlns="http://www.w3.org/2000/svg" version="1.1" xmlns:xlink="http://www.w3.org/1999/xlink" xmlns:svgjs="http://svgjs.dev/svgjs" width="1000" height="176" viewBox="0 0 1000 176"><g transform="matrix(1,0,0,1,-0.6060538223862295,0.1868482667602791)"><svg viewBox="0 0 396 70" data-background-color="#ffffff" preserveAspectRatio="xMidYMid meet" height="176" width="1000" xmlns="http://www.w3.org/2000/svg" xmlns:xlink="http://www.w3.org/1999/xlink"><g id="tight-bounds" transform="matrix(1,0,0,1,0.2399973136649578,-0.0743146515523847)"><svg viewBox="0 0 395.52 70.14862663248816" height="70.14862663248816" width="395.52"><g><svg viewBox="0 0 584.7848320078406 103.71625414861529" height="70.14862663248816" width="395.52"><g><rect width="6.767900748405505" height="90.05752892788591" x="164.77991359345216" y="6.82936261036469" fill="#ff851b" opacity="1" stroke-width="0" stroke="transparent" fill-opacity="1" class="rect-o-0" data-fill-palette-color="primary" rx="1%" id="o-0" data-palette-color="#ff851b"></rect></g><g transform="matrix(1,0,0,1,189.26483200784068,14.334156687688512)"><svg viewBox="0 0 395.52 75.04794077323827" height="75.04794077323827" width="395.52"><g><svg viewBox="0 0 395.52 75.04794077323827" height="75.04794077323827" width="395.52"><g><svg viewBox="0 0 395.52 75.04794077323827" height="75.04794077323827" width="395.52"><g transform="matrix(1,0,0,1,0,0)"><svg width="395.52" viewBox="2.5 -34.25 182.33999633789062 34.599998474121094" height="75.04794077323827" data-palette-color="#ff851b"><path d="M11.25-13.05L10.2 0 2.5 0 5.4-33.7 13.85-33.7 18.55-21.5Q19.75-18.45 20.6-15.9 21.45-13.35 21.7-12.3L21.7-12.3 21.95-11.3Q22.75-14.6 25.45-21.5L25.45-21.5 30.2-33.7 38.65-33.7 42.15 0 34.45 0 33.2-13.05 32.55-22.9Q31.25-19.15 28.95-13.05L28.95-13.05 24.2-0.35 19.65-0.35 14.95-13.05Q13.8-16.15 13-18.6 12.2-21.05 11.95-22L11.95-22 11.7-22.9Q11.7-19.35 11.25-13.05L11.25-13.05ZM79.45-16.95L79.45-16.95Q79.45-9.2 74.97-4.42 70.5 0.35 63.05 0.35L63.05 0.35Q55.55 0.35 51.1-4.4 46.65-9.15 46.65-16.95L46.65-16.95Q46.65-24.7 51.12-29.48 55.6-34.25 63.05-34.25L63.05-34.25Q70.55-34.25 75-29.5 79.45-24.75 79.45-16.95ZM57.1-24.48Q54.9-21.7 54.9-16.95 54.9-12.2 57.1-9.43 59.3-6.65 63.05-6.65 66.8-6.65 69-9.43 71.2-12.2 71.2-16.95 71.2-21.7 69-24.48 66.8-27.25 63.05-27.25 59.3-27.25 57.1-24.48ZM113.45-33.7L102.1 0 93.6 0 82.4-33.7 90.7-33.7 94.75-20.25Q95.85-16.65 96.65-13.33 97.45-10 97.7-8.5L97.7-8.5 97.95-6.95Q98.75-12.15 101.2-20.25L101.2-20.25 105.25-33.7 113.45-33.7ZM125.84-33.7L125.84 0 118.14 0 118.14-33.7 125.84-33.7ZM153.79-6.15L153.79 0 132.84 0 132.84-33.7 153.59-33.7 153.59-27.55 140.59-27.55 140.59-19.9 152.19-19.9 152.19-13.8 140.59-13.8 140.59-6.15 153.79-6.15ZM184.84-6.2L184.84 0 159.79 0 159.79-5.65 174.89-27.5 160.09-27.5 160.09-33.7 184.24-33.7 184.24-28.25 169.04-6.2 184.84-6.2Z" opacity="1" transform="matrix(1,0,0,1,0,0)" fill="#ff851b" class="undefined-text-0" data-fill-palette-color="primary" id="text-0"></path></svg></g></svg></g></svg></g></svg></g><g><svg viewBox="0 0 147.06289592746916 103.71625414861529" height="103.71625414861529" width="147.06289592746916"><g><svg xmlns="http://www.w3.org/2000/svg" xmlns:xlink="http://www.w3.org/1999/xlink" version="1.1" x="0" y="0" viewBox="0.5 10.899999618530273 71.03853607177734 50.099998474121094" enable-background="new 0 0 72 72" xml:space="preserve" height="103.71625414861529" width="147.06289592746916" class="icon-icon-0" data-fill-palette-color="accent" id="icon-0"><g fill="#ff851b" data-fill-palette-color="accent"><path fill="#ff851b" d="M70.2 10.9H22.8c-0.6 0-1.1 0.4-1.3 1L8.8 59.4c-0.2 0.8 0.4 1.6 1.3 1.6h47.4c0.6 0 1.1-0.4 1.3-1l12.7-47.5C71.7 11.7 71.1 10.9 70.2 10.9zM19.6 53.1l-1 3.7c-0.2 0.6-0.7 1-1.3 1h-3.6c-0.9 0-1.5-0.8-1.3-1.6l1-3.7c0.2-0.6 0.7-1 1.3-1h3.6C19.2 51.4 19.9 52.2 19.6 53.1zM35.2 18.9l1-3.7c0.2-0.6 0.7-1 1.3-1h3.6c0.9 0 1.5 0.8 1.3 1.6l-1 3.7c-0.2 0.6-0.7 1-1.3 1h-3.6C35.6 20.6 34.9 19.8 35.2 18.9zM22.4 18.9l1-3.7c0.2-0.6 0.7-1 1.3-1h3.6c0.9 0 1.5 0.8 1.3 1.6l-1 3.7c-0.2 0.6-0.7 1-1.3 1h-3.6C22.8 20.6 22.2 19.8 22.4 18.9zM32.4 53.1l-1 3.7c-0.2 0.6-0.7 1-1.3 1h-3.6c-0.9 0-1.5-0.8-1.3-1.6l1-3.7c0.2-0.6 0.7-1 1.3-1h3.6C32 51.4 32.6 52.2 32.4 53.1zM45.1 53.1l-1 3.7c-0.2 0.6-0.7 1-1.3 1h-3.6c-0.9 0-1.5-0.8-1.3-1.6l1-3.7c0.2-0.6 0.7-1 1.3-1h3.6C44.7 51.4 45.3 52.2 45.1 53.1zM45.6 37.2l-11.7 9.3c-1.4 1.1-3 0.3-2.6-1.2l5-18.5c0.4-1.5 2.5-2.3 3.2-1.2l6.8 9.3C46.8 35.5 46.5 36.5 45.6 37.2zM47.9 18.9l1-3.7c0.2-0.6 0.7-1 1.3-1h3.6c0.9 0 1.5 0.8 1.3 1.6l-1 3.7c-0.2 0.6-0.7 1-1.3 1h-3.6C48.3 20.6 47.6 19.8 47.9 18.9zM57.8 53.1l-1 3.7c-0.2 0.6-0.7 1-1.3 1h-3.6c-0.9 0-1.5-0.8-1.3-1.6l1-3.7c0.2-0.6 0.7-1 1.3-1h3.6C57.4 51.4 58 52.2 57.8 53.1zM67.8 15.9l-1 3.7c-0.2 0.6-0.7 1-1.3 1h-3.6c-0.9 0-1.5-0.8-1.3-1.6l1-3.7c0.2-0.6 0.7-1 1.3-1h3.6C67.4 14.2 68 15 67.8 15.9z" data-fill-palette-color="accent"></path><path fill="#ff851b" d="M3.2 24.1h9.4c1 0 1.7-0.8 1.7-1.7 0-1-0.8-1.7-1.7-1.7H3.2c-1 0-1.7 0.8-1.7 1.7C1.5 23.4 2.3 24.1 3.2 24.1z" data-fill-palette-color="accent"></path><path fill="#ff851b" d="M2.2 33.2h7.4c1 0 1.7-0.8 1.7-1.7 0-1-0.8-1.7-1.7-1.7H2.2c-1 0-1.7 0.8-1.7 1.7C0.5 32.4 1.3 33.2 2.2 33.2z" data-fill-palette-color="accent"></path><path fill="#ff851b" d="M8.4 38.8H3.2c-1 0-1.7 0.8-1.7 1.7 0 1 0.8 1.7 1.7 1.7h5.2c1 0 1.7-0.8 1.7-1.7C10.1 39.6 9.3 38.8 8.4 38.8z" data-fill-palette-color="accent"></path><path fill="#ff851b" d="M5 47.9H2.2c-1 0-1.7 0.8-1.7 1.7 0 1 0.8 1.7 1.7 1.7H5c1 0 1.7-0.8 1.7-1.7C6.7 48.6 6 47.9 5 47.9z" data-fill-palette-color="accent"></path></g></svg></g></svg></g></svg></g><defs></defs></svg><rect width="395.52" height="70.14862663248816" fill="none" stroke="none" visibility="hidden"></rect></g></svg></g></svg>